<?xml version="1.0" encoding="utf-8"?>
<!-- Generator: Adobe Illustrator 26.0.1, SVG Export Plug-In . SVG Version: 6.00 Build 0)  -->
<svg version="1.1" id="Layer_1" xmlns="http://www.w3.org/2000/svg" xmlns:xlink="http://www.w3.org/1999/xlink" x="0px" y="0px"
	 viewBox="0 0 512 512" style="enable-background:new 0 0 512 512;" xml:space="preserve">
<style type="text/css">
	.st0{fill:#E21A32;}
</style>
<g>
	<path class="st0" d="M256,33C132.3,33,32,133.3,32,257s100.3,224,224,224s224-100.3,224-224S379.7,33,256,33z M364.3,332.5
		c1.5,1.5,2.3,3.5,2.3,5.6s-0.8,4.2-2.3,5.6l-21.6,21.7c-1.6,1.6-3.6,2.3-5.6,2.3s-4.1-0.8-5.6-2.3L256,289.8l-75.4,75.7
		c-1.5,1.6-3.6,2.3-5.6,2.3s-4.1-0.8-5.6-2.3l-21.6-21.7c-1.5-1.5-2.3-3.5-2.3-5.6s0.8-4.2,2.3-5.6l75.7-76l-75.9-75
		c-3.1-3.1-3.1-8.2,0-11.3l21.6-21.7c1.5-1.5,3.5-2.3,5.6-2.3s4.1,0.8,5.6,2.3l75.7,74.7l75.7-74.7c1.5-1.5,3.5-2.3,5.6-2.3
		s4.1,0.8,5.6,2.3l21.6,21.7c3.1,3.1,3.1,8.2,0,11.3l-75.9,75L364.3,332.5z"/>
</g>
</svg>
