<?xml version="1.0" encoding="utf-8"?>
<!-- Generator: Adobe Illustrator 26.0.1, SVG Export Plug-In . SVG Version: 6.00 Build 0)  -->
<svg version="1.1" id="Layer_1" xmlns="http://www.w3.org/2000/svg" xmlns:xlink="http://www.w3.org/1999/xlink" x="0px" y="0px"
	 viewBox="0 0 1920 376" style="enable-background:new 0 0 1920 376;" xml:space="preserve">
<style type="text/css">
	.st0{fill:none;}
	.st1{opacity:0.3;}
	.st2{fill:none;stroke:#6ECCA8;stroke-width:0.25;stroke-miterlimit:10;}
	.st3{fill:#98AEFF;stroke:#6ECCA8;stroke-miterlimit:10;}
</style>
<rect class="st0" width="1920" height="376"/>
<g class="st1">
	<path class="st2" d="M295.4-54.2v53.8L342,26.4l46.6-26.9v-53.8"/>
	<path class="st2" d="M388.6-54.2v53.8l46.6,26.9"/>
	<path class="st2" d="M388.6,107.1V53.3l46.6-26.9l46.6,26.9v53.8L435.1,134L388.6,107.1z"/>
	<path class="st2" d="M295.4,53.3V-0.4L342-27.3l46.6,26.9"/>
	<path class="st2" d="M435.1,26.4L388.6-0.4v-53.8l46.6-26.9l46.6,26.9"/>
	<path class="st2" d="M668-54.2v53.8l46.6,26.9"/>
	<path class="st2" d="M714.6,26.4L668-0.4v-53.8l46.6-26.9l46.6,26.9"/>
	<path class="st2" d="M854.3,53.3V-0.4l-46.6-26.9L761.2-0.4"/>
	<path class="st2" d="M854.3,160.8l46.6-26.9V80.2l-46.6-26.9l-46.6,26.9"/>
	<path class="st2" d="M761.2,107.1L714.6,134v53.8l46.6,26.9l46.6-26.9"/>
	<path class="st2" d="M714.6,187.7V134l46.6-26.9l46.6,26.9"/>
	<path class="st2" d="M621.5,80.2V134l46.6,26.9"/>
	<path class="st2" d="M807.8,187.7V134l46.6-26.9l46.6,26.9v53.8l-46.6,26.9L807.8,187.7z"/>
	<path class="st2" d="M621.5,241.5v-53.8l46.6-26.9l46.6,26.9v53.8L668,268.4L621.5,241.5z"/>
	<path class="st2" d="M807.8,134v53.8l-46.6,26.9l-46.6-26.9V134"/>
	<path class="st2" d="M714.6,134v53.8L668,214.6"/>
	<path class="st2" d="M761.2,268.4v-53.8l46.6-26.9l46.6,26.9v53.8l-46.6,26.9L761.2,268.4z"/>
	<path class="st2" d="M714.6,187.7l46.6,26.9v53.8l-46.6,26.9L668,268.4"/>
	<path class="st2" d="M668,214.6v-53.8l46.6-26.9l46.6,26.9"/>
	<path class="st2" d="M761.2,268.4v-53.8l-46.6-26.9L668,214.6"/>
	<path class="st2" d="M854.3,160.8v53.8l-46.6,26.9"/>
	<path class="st2" d="M807.8,187.7V134l46.6-26.9l46.6,26.9v53.8l-46.6,26.9L807.8,187.7z"/>
	<path class="st2" d="M668,160.8L621.5,134V80.2L668,53.3l46.6,26.9"/>
	<path class="st2" d="M761.2,107.1l46.6,26.9v53.8l-46.6,26.9l-46.6-26.9"/>
	<path class="st2" d="M807.8,187.7V134l-46.6-26.9L714.6,134"/>
	<path class="st2" d="M668.1-0.5l-46.6,26.9v53.8l46.6,26.9l46.6-26.9"/>
	<path class="st2" d="M1692.7-0.4v-53.8l-46.6-26.9l-46.6,26.9v53.8l46.6,26.9L1692.7-0.4z"/>
	<path class="st2" d="M1459.8-81.1l-46.6,26.9v53.8l46.6,26.9l46.6-26.9"/>
	<path class="st2" d="M1506.4-0.4v-53.8l46.6-26.9l46.6,26.9v53.8L1553,26.4L1506.4-0.4z"/>
	<path class="st2" d="M1320.1,53.3V-0.4l46.6-26.9l46.6,26.9v53.8l-46.6,26.9L1320.1,53.3z"/>
	<path class="st2" d="M1506.4-54.2v53.8l-46.6,26.9l-46.6-26.9v-53.8"/>
	<path class="st2" d="M1413.3-54.2v53.8l-46.6,26.9"/>
	<path class="st2" d="M1459.8,80.2V26.4l46.6-26.9l46.6,26.9v53.8l-46.6,26.9L1459.8,80.2z"/>
	<path class="st2" d="M1413.3-0.5l46.6,26.9v53.8l-46.6,26.9l-46.6-26.9"/>
	<path class="st2" d="M1366.7,26.4v-53.8l46.6-26.9l46.6,26.9"/>
	<path class="st2" d="M1459.8,80.2V26.4l-46.6-26.9l-46.6,26.9"/>
	<path class="st2" d="M1506.4-0.4v-53.8l46.6-26.9l46.6,26.9v53.8L1553,26.4L1506.4-0.4z"/>
	<path class="st2" d="M1459.8-81.1l46.6,26.9v53.8l-46.6,26.9l-46.6-26.9"/>
	<path class="st2" d="M1459.8,80.2V134l46.6,26.9L1553,134V80.2"/>
	<path class="st2" d="M1553,80.2V134"/>
	<path class="st2" d="M1459.8,134l46.6-26.9L1553,134"/>
	<path class="st2" d="M1646.1,80.2V26.4l-46.6-26.9L1553,26.4v53.8l46.6,26.9L1646.1,80.2z"/>
	<path class="st2" d="M1553,134V80.2l46.6-26.9l46.6,26.9"/>
	<path class="st2" d="M1692.7-0.5l46.6,26.9v53.8l-46.6,26.9l-46.6-26.9"/>
	<path class="st2" d="M1646.1,26.4v-53.8l46.6-26.9l46.6,26.9"/>
	<path class="st2" d="M1739.3,80.2V26.4l-46.6-26.9l-46.6,26.9"/>
	<path class="st2" d="M1227-54.2v53.8l46.6,26.9l46.6-26.9v-53.8"/>
	<path class="st2" d="M1227,53.3V-0.4l46.6-26.9l46.6,26.9"/>
	<path class="st2" d="M901,26.4v-53.8l46.6-26.9l46.6,26.9v53.8l-46.6,26.9L901,26.4z"/>
	<path class="st2" d="M900.9,26.4v53.8l46.6,26.9l46.6-26.9V26.4"/>
	<path class="st2" d="M994.1,26.4v53.8l46.6,26.9"/>
	<path class="st2" d="M994.1,187.7V134l46.6-26.9l46.6,26.9v53.8l-46.6,26.9L994.1,187.7z"/>
	<path class="st2" d="M900.9,134V80.2l46.6-26.9l46.6,26.9"/>
	<path class="st2" d="M1087.2,80.2V134l-46.6,26.9"/>
	<path class="st2" d="M1087.2,26.4v-53.8l-46.6-26.9l-46.6,26.9v53.8l46.6,26.9L1087.2,26.4z"/>
	<path class="st2" d="M1040.7,107.1l-46.6-26.9V26.4l46.6-26.9l46.6,26.9"/>
	<path class="st2" d="M1180.4,26.4v-53.8l46.6-26.9l46.6,26.9v53.8L1227,53.3L1180.4,26.4z"/>
	<path class="st2" d="M1133.8-54.2l46.6,26.9v53.8l-46.6,26.9l-46.6-26.9"/>
	<path class="st2" d="M1180.4,26.4v-53.8l-46.6-26.9l-46.6,26.9"/>
	<path class="st2" d="M1180.4,26.4v53.8l46.6,26.9l46.6-26.9V26.4"/>
	<path class="st2" d="M947.4,107.1V53.3l46.6-26.9l46.6,26.9"/>
	<path class="st2" d="M1180.4,134V80.2l46.6-26.9l46.6,26.9"/>
	<path class="st2" d="M1227,160.8v-53.8l-46.6-26.9l-46.6,26.9v53.8l46.6,26.9L1227,160.8z"/>
	<path class="st2" d="M1133.8,107.1l-46.6,26.9v53.8l46.6,26.9l46.6-26.9"/>
	<path class="st2" d="M1087.3,187.7V134l46.6-26.9l46.6,26.9"/>
	<path class="st2" d="M248.8,26.4v-53.8l46.6-26.9l46.6,26.9v53.8l-46.6,26.9L248.8,26.4z"/>
	<path class="st2" d="M155.6,26.4v-53.8l46.6-26.9l46.6,26.9"/>
	<path class="st2" d="M-77.2,160.8v-53.8l46.6-26.9l46.6,26.9v53.8l-46.6,26.9L-77.2,160.8z"/>
	<path class="st2" d="M15.9,53.3v53.8L-30.7,134"/>
	<path class="st2" d="M-30.7,80.2l-46.6-26.9V-0.4l46.6-26.9L15.9-0.4"/>
	<path class="st2" d="M109.1-0.4v-53.8l46.6-26.9l46.6,26.9v53.8l-46.6,26.9L109.1-0.4z"/>
	<path class="st2" d="M62.5-81.1l46.6,26.9v53.8L62.5,26.4L15.9-0.4"/>
	<path class="st2" d="M109-0.5v53.8l46.6,26.9l46.6-26.9V-0.5"/>
	<path class="st2" d="M109,107.1V53.3l46.6-26.9l46.6,26.9"/>
	<path class="st2" d="M155.7,134V80.2l-46.6-26.9L62.5,80.2V134l46.6,26.9L155.7,134z"/>
	<path class="st2" d="M62.5,80.2l-46.6,26.9v53.8l46.6,26.9l46.6-26.9"/>
	<path class="st2" d="M15.9,160.8v-53.8l46.6-26.9l46.6,26.9"/>
	<path class="st2" d="M947.4-0.5v-53.8L994-81.1l46.6,26.9v53.8L994,26.4L947.4-0.5z"/>
	<path class="st2" d="M900.8-81.1l46.6,26.9v53.8l-46.6,26.9L854.2-0.5"/>
	<path class="st2" d="M947.4-0.5v53.8l46.6,26.9l46.6-26.9V-0.5"/>
	<path class="st2" d="M947.4,107.1V53.3l46.6-26.9l46.6,26.9"/>
	<path class="st2" d="M807.7-27.3L761.2-0.4v53.8l46.6,26.9l46.6-26.9"/>
	<path class="st2" d="M761.2,53.3V-0.4l46.6-26.9l46.6,26.9"/>
	<path class="st2" d="M668,107.1V53.3l46.6-26.9l46.6,26.9v53.8L714.6,134L668,107.1z"/>
	<path class="st2" d="M574.9,53.3V-0.4l46.6-26.9L668-0.4"/>
	<path class="st2" d="M854.3-0.5v53.8l-46.6,26.9l-46.6-26.9V-0.5"/>
	<path class="st2" d="M761.2-0.5v53.8l-46.6,26.9"/>
	<path class="st2" d="M574.9-54.2v53.8l46.6,26.9L668-0.5v-53.8"/>
	<path class="st2" d="M1553-27.3v53.8l-46.6,26.9"/>
	<path class="st2" d="M900.8-81.1l46.6,26.9v53.8l-46.6,26.9L854.2-0.5"/>
	<path class="st2" d="M1878.9-108l-46.6,26.9v53.8l46.6,26.9l46.6-26.9"/>
	<path class="st3" d="M590.9,62.6V44l-16-9.3l-16,9.3v18.5l16,9.3L590.9,62.6z"/>
</g>
</svg>
